<?xml version="1.0" encoding="UTF-8" standalone="no"?>
<svg
   xmlns:dc="http://purl.org/dc/elements/1.1/"
   xmlns:cc="http://creativecommons.org/ns#"
   xmlns:rdf="http://www.w3.org/1999/02/22-rdf-syntax-ns#"
   xmlns:svg="http://www.w3.org/2000/svg"
   xmlns="http://www.w3.org/2000/svg"
   xmlns:sodipodi="http://sodipodi.sourceforge.net/DTD/sodipodi-0.dtd"
   xmlns:inkscape="http://www.inkscape.org/namespaces/inkscape"
   version="1.1"
   x="0px"
   y="0px"
   viewBox="0 0 1000 1000"
   enable-background="new 0 0 1000 1000"
   xml:space="preserve"
   id="svg8"
   sodipodi:docname="details-icon-colored.svg"
   inkscape:version="1.0.1 (3bc2e813f5, 2020-09-07)"><defs
   id="defs12" /><sodipodi:namedview
   pagecolor="#ffffff"
   bordercolor="#666666"
   borderopacity="1"
   objecttolerance="10"
   gridtolerance="10"
   guidetolerance="10"
   inkscape:pageopacity="0"
   inkscape:pageshadow="2"
   inkscape:window-width="1920"
   inkscape:window-height="1055"
   id="namedview10"
   showgrid="false"
   inkscape:zoom="0.883"
   inkscape:cx="500"
   inkscape:cy="498.8675"
   inkscape:window-x="-9"
   inkscape:window-y="-9"
   inkscape:window-maximized="1"
   inkscape:current-layer="svg8" />
<metadata
   id="metadata2"> Svg Vector Icons : http://www.onlinewebfonts.com/icon <rdf:RDF><cc:Work
     rdf:about=""><dc:format>image/svg+xml</dc:format><dc:type
       rdf:resource="http://purl.org/dc/dcmitype/StillImage" /><dc:title></dc:title></cc:Work></rdf:RDF></metadata>
<rect
   style="fill:#ffcc00"
   id="rect14"
   width="749.71686"
   height="818.79956"
   x="73.612686"
   y="91.732727"
   ry="0" /><g
   id="g6"><path
     d="m 665.1,281.6 c 3.2,-6.3 3.2,-19 0,-28.5 -6.3,-12.7 -22.2,-15.8 -44.3,-15.8 h -3.2 -370.2 -15.8 c -31.6,0 -47.5,15.8 -47.5,31.6 0,9.5 6.3,19 15.8,25.3 9.5,3.2 19,9.5 31.6,9.5 h 389.3 c 22.2,0.1 38,-9.4 44.3,-22.1 z m -481,120.3 c 0,9.5 6.3,22.2 15.8,25.3 9.5,3.2 19,6.3 31.6,6.3 h 300.7 l 6.3,-6.3 c 9.5,-9.5 19,-19 28.5,-28.5 l 38,-31.6 H 231.5 c -31.6,3.1 -47.4,19 -47.4,34.8 z m 648.7,-28.5 c 9.5,3.2 19,9.5 28.5,15.8 L 889.8,405 V 110.7 c 0,-53.8 -47.5,-69.6 -79.1,-69.6 v 0 H 101.8 v 0 C 70.2,41.1 10,60.1 10,110.7 v 778.5 c 0,50.6 60.1,69.6 91.8,69.6 v 0 h 708.9 c 57,0 79.1,-41.1 79.1,-69.6 v -69.6 l -41.1,-34.8 -28.5,12.7 v 91.8 c 0,0 0,3.2 -3.2,6.3 -3.2,3.2 -3.2,0 -9.5,0 H 101.8 c -3.2,0 -22.2,6.3 -22.2,-6.3 V 110.7 c 0,-3.2 9.5,-3.2 22.2,-3.2 h 708.9 c 3.2,0 12.7,-6.3 12.7,3.2 V 370.2 Z M 987.9,775.3 867.7,661.4 c 19,-28.5 28.5,-60.1 28.5,-94.9 0,-101.3 -85.4,-180.4 -193.1,-180.4 -107.7,0 -193.1,82.3 -193.1,180.4 0,101.3 85.4,180.4 193.1,180.4 47.5,0 88.6,-15.8 120.3,-41.1 l 117.1,110.8 c 6.3,6.3 15.8,6.3 22.2,0 l 22.2,-22.2 c 6.2,-3.2 6.2,-12.7 3,-19.1 z M 563.8,569.6 c 0,-72.8 63.3,-132.9 139.3,-132.9 76,0 139.3,60.1 139.3,132.9 0,72.8 -63.3,132.9 -139.3,132.9 C 624,699.4 563.8,642.4 563.8,569.6 Z"
     id="path4" /></g>
<ellipse
   style="fill:#ff9900"
   id="path20"
   cx="703.28424"
   cy="564.55267"
   rx="144.96036"
   ry="137.59909" /><ellipse
   style="fill:#3366cc"
   id="path22"
   cx="949.03735"
   cy="836.35333"
   rx="1.1325028"
   ry="2.8312571" /></svg>
