<?xml version="1.0" encoding="UTF-8" standalone="no"?>
<svg
   xmlns:dc="http://purl.org/dc/elements/1.1/"
   xmlns:cc="http://creativecommons.org/ns#"
   xmlns:rdf="http://www.w3.org/1999/02/22-rdf-syntax-ns#"
   xmlns:svg="http://www.w3.org/2000/svg"
   xmlns="http://www.w3.org/2000/svg"
   xmlns:sodipodi="http://sodipodi.sourceforge.net/DTD/sodipodi-0.dtd"
   xmlns:inkscape="http://www.inkscape.org/namespaces/inkscape"
   version="1.1"
   x="0px"
   y="0px"
   viewBox="0 0 1000 1000"
   enable-background="new 0 0 1000 1000"
   xml:space="preserve"
   id="svg8"
   sodipodi:docname="grid_icon_active.svg"
   inkscape:version="1.0.1 (3bc2e813f5, 2020-09-07)"><defs
   id="defs12" /><sodipodi:namedview
   pagecolor="#ffffff"
   bordercolor="#666666"
   borderopacity="1"
   objecttolerance="10"
   gridtolerance="10"
   guidetolerance="10"
   inkscape:pageopacity="0"
   inkscape:pageshadow="2"
   inkscape:window-width="1920"
   inkscape:window-height="1055"
   id="namedview10"
   showgrid="false"
   inkscape:zoom="0.883"
   inkscape:cx="448.47112"
   inkscape:cy="500"
   inkscape:window-x="-9"
   inkscape:window-y="-9"
   inkscape:window-maximized="1"
   inkscape:current-layer="svg8" />
<metadata
   id="metadata2"> Svg Vector Icons : http://www.onlinewebfonts.com/icon <rdf:RDF><cc:Work
     rdf:about=""><dc:format>image/svg+xml</dc:format><dc:type
       rdf:resource="http://purl.org/dc/dcmitype/StillImage" /><dc:title></dc:title></cc:Work></rdf:RDF></metadata>
<rect
   style="fill:#bfbfbf"
   id="rect65"
   width="970.74744"
   height="976.40997"
   x="10"
   y="10" /><rect
   style="fill:#ff7373;fill-opacity:1"
   id="rect67"
   width="303.51077"
   height="281.99319"
   x="353.34088"
   y="361.2684" /><g
   id="g6"><path
     d="M 10,10 V 990 H 990 V 10 Z M 935.6,318.5 H 681.5 V 64.4 H 935.6 Z M 318.5,627 H 64.4 V 373 H 318.5 Z M 373,373 H 627 V 627 H 373 Z M 627,681.5 V 935.6 H 373 V 681.5 Z M 373,318.5 V 64.4 H 627 V 318.5 Z M 681.5,373 H 935.6 V 627 H 681.5 Z M 318.5,64.4 V 318.5 H 64.4 V 64.4 Z M 64.4,681.5 H 318.5 V 935.6 H 64.4 Z M 681.5,935.6 V 681.5 h 254.1 v 254.1 z"
     id="path4" /></g>
</svg>
