<?xml version="1.0" encoding="UTF-8" standalone="no"?>
<svg
   xmlns:dc="http://purl.org/dc/elements/1.1/"
   xmlns:cc="http://creativecommons.org/ns#"
   xmlns:rdf="http://www.w3.org/1999/02/22-rdf-syntax-ns#"
   xmlns:svg="http://www.w3.org/2000/svg"
   xmlns="http://www.w3.org/2000/svg"
   xmlns:sodipodi="http://sodipodi.sourceforge.net/DTD/sodipodi-0.dtd"
   xmlns:inkscape="http://www.inkscape.org/namespaces/inkscape"
   version="1.0"
   x="0px"
   y="0px"
   viewBox="0 0 100 125"
   enable-background="new 0 0 100 100"
   xml:space="preserve"
   id="svg10"
   sodipodi:docname="noun_Home_1635921 (1).svg"
   inkscape:version="1.0.1 (3bc2e813f5, 2020-09-07)"><metadata
     id="metadata16"><rdf:RDF><cc:Work
         rdf:about=""><dc:format>image/svg+xml</dc:format><dc:type
           rdf:resource="http://purl.org/dc/dcmitype/StillImage" /><dc:title></dc:title></cc:Work></rdf:RDF></metadata><defs
     id="defs14" /><sodipodi:namedview
     pagecolor="#ffffff"
     bordercolor="#666666"
     borderopacity="1"
     objecttolerance="10"
     gridtolerance="10"
     guidetolerance="10"
     inkscape:pageopacity="0"
     inkscape:pageshadow="2"
     inkscape:window-width="1920"
     inkscape:window-height="1055"
     id="namedview12"
     showgrid="false"
     inkscape:zoom="7.064"
     inkscape:cx="50"
     inkscape:cy="53.858858"
     inkscape:window-x="-9"
     inkscape:window-y="-9"
     inkscape:window-maximized="1"
     inkscape:current-layer="svg10" /><path
     d="m 22.466029,10 c -3.20127,0 -5.799029,2.985734 -5.799029,6.672262 0,1.841563 0.648918,3.509379 1.699016,4.717404 l 4.100013,4.623924 4.10123,-4.624925 c 1.049925,-1.206824 1.699017,-2.87464 1.697799,-4.717604 C 28.265058,12.988937 25.669039,10 22.466029,10 Z m 3.281819,10.443663 -3.281819,3.701141 -3.287908,-3.708948 c -0.86882,-0.998047 -1.35142,-2.338384 -1.35142,-3.763393 0,-2.943298 2.081235,-5.33793 4.639328,-5.33793 1.239033,0 2.404475,0.555871 3.280601,1.563927 0.876127,1.008656 1.358727,2.348393 1.358727,3.772802 10e-4,1.42621 -0.481557,2.765346 -1.357509,3.772401 z"
     id="path2"
     style="stroke-width:0.186612" /><polygon
     points="33.333,43.333 38.333,43.333 38.333,56.666 46.667,56.666 46.667,46.667 53.333,46.667 53.333,56.666 61.667,56.666 61.667,43.333 66.667,43.333 50,26.667 "
     id="polygon4"
     transform="matrix(0.17397261,0,0,0.20016988,13.767399,7.9983012)" /></svg>
