<?xml version="1.0" encoding="UTF-8" standalone="no"?>
<svg
   xmlns:dc="http://purl.org/dc/elements/1.1/"
   xmlns:cc="http://creativecommons.org/ns#"
   xmlns:rdf="http://www.w3.org/1999/02/22-rdf-syntax-ns#"
   xmlns:svg="http://www.w3.org/2000/svg"
   xmlns="http://www.w3.org/2000/svg"
   xmlns:sodipodi="http://sodipodi.sourceforge.net/DTD/sodipodi-0.dtd"
   xmlns:inkscape="http://www.inkscape.org/namespaces/inkscape"
   version="1.1"
   x="0px"
   y="0px"
   viewBox="0 0 1000 1000"
   enable-background="new 0 0 1000 1000"
   xml:space="preserve"
   id="svg10"
   sodipodi:docname="select_icon_colored.svg"
   inkscape:version="1.0.1 (3bc2e813f5, 2020-09-07)"><defs
   id="defs14" /><sodipodi:namedview
   pagecolor="#ffffff"
   bordercolor="#666666"
   borderopacity="1"
   objecttolerance="10"
   gridtolerance="10"
   guidetolerance="10"
   inkscape:pageopacity="0"
   inkscape:pageshadow="2"
   inkscape:window-width="1920"
   inkscape:window-height="1055"
   id="namedview12"
   showgrid="false"
   inkscape:lockguides="true"
   inkscape:zoom="1.2487506"
   inkscape:cx="595.03274"
   inkscape:cy="292.90974"
   inkscape:window-x="-9"
   inkscape:window-y="-9"
   inkscape:window-maximized="1"
   inkscape:current-layer="svg10" />
<metadata
   id="metadata2"> Svg Vector Icons : http://www.onlinewebfonts.com/icon <rdf:RDF><cc:Work
     rdf:about=""><dc:format>image/svg+xml</dc:format><dc:type
       rdf:resource="http://purl.org/dc/dcmitype/StillImage" /><dc:title></dc:title></cc:Work></rdf:RDF></metadata>
<rect
   style="fill:#cc0000"
   id="rect89"
   width="45.645626"
   height="41.641621"
   x="763.16284"
   y="472.47226" /><rect
   style="fill:#cc0000"
   id="rect83"
   width="117.7177"
   height="102.50251"
   x="715.11481"
   y="386.78662"
   ry="0" /><rect
   style="fill:#cc0000"
   id="rect79"
   width="49.830147"
   height="202.71799"
   x="793.88446"
   y="348.81088" /><rect
   style="fill:#cc0000"
   id="rect77"
   width="174.40544"
   height="43.035107"
   x="674.97168"
   y="392.97849" /><rect
   style="fill:#cc0000"
   id="rect75"
   width="80.4077"
   height="84.937706"
   x="539.07135"
   y="243.4881" /><rect
   style="fill:#cc0000"
   id="rect73"
   width="138.16534"
   height="80.407692"
   x="489.24124"
   y="203.85051" /><rect
   style="fill:#cc0000"
   id="rect71"
   width="69.082672"
   height="185.73047"
   x="591.1665"
   y="184.59796" /><rect
   style="fill:#cc0000"
   id="rect63"
   width="219.70551"
   height="370.32846"
   x="635.33411"
   y="40.770103" /><rect
   style="fill:#cc0000"
   id="rect61"
   width="515.28882"
   height="186.86296"
   x="334.08835"
   y="44.16761" /><rect
   style="fill:#cc0000"
   id="rect50"
   width="314.83578"
   height="688.56177"
   x="81.540207"
   y="44.16761" /><g
   id="g8"><g
     transform="matrix(1,0,0,-1,0,1638)"
     id="g6"><path
       d="M 303.9,893 H 108.1 c -20.4,0 -37.8,7.2 -52.2,21.5 -14.4,14.3 -21.5,31.6 -21.5,51.7 v 588.1 c 0,20.4 7.2,37.8 21.5,52.2 14.3,14.4 31.7,21.5 52.2,21.5 h 685.7 c 20.4,0 37.8,-7.2 52.2,-21.5 14.4,-14.3 21.5,-31.7 21.5,-52.2 v -343.1 c 0,-6.7 -2.4,-12.4 -7.2,-17.2 -4.8,-4.8 -10.5,-7.2 -17.2,-7.2 -7,0 -12.9,2.4 -17.7,7.2 -4.8,4.8 -7.2,10.5 -7.2,17.2 v 343.1 c 0,6.7 -2.4,12.4 -7.2,17.2 -4.8,4.8 -10.5,7.2 -17.2,7.2 H 108.1 c -7,0 -12.9,-2.4 -17.7,-7.2 -4.8,-4.8 -7.2,-10.5 -7.2,-17.2 V 966.2 c 0,-6.7 2.4,-12.4 7.2,-17.2 4.8,-4.8 10.7,-7.2 17.7,-7.2 h 195.7 c 6.7,0 12.4,-2.4 17.2,-7.2 4.8,-4.8 7.2,-10.5 7.2,-17.2 0,-6.7 -2.4,-12.4 -7.2,-17.2 -4.7,-4.8 -10.4,-7.2 -17.1,-7.2 z M 671.4,648 c -4.8,0 -9.3,1.4 -13.4,4.1 -4.1,2.7 -7.2,6.5 -9.1,11.2 L 565.6,871 420.6,705 c -3.5,-3.8 -7.7,-6.3 -12.7,-7.4 -4.9,-1.1 -9.8,-0.9 -14.6,0.7 -4.8,1.9 -8.6,4.9 -11.5,9.1 -2.9,4.1 -4.3,8.8 -4.3,13.9 v 735 c 0,4.8 1.3,9.3 3.8,13.4 2.6,4.1 6.1,7.2 10.5,9.1 4.5,1.9 9.1,2.5 13.9,1.7 4.8,-0.8 8.9,-2.8 12.4,-6 l 539.3,-490 c 3.8,-3.5 6.3,-7.7 7.4,-12.4 1.1,-4.8 0.7,-9.6 -1.2,-14.4 -1.9,-4.8 -4.9,-8.6 -9.1,-11.5 -4.1,-2.9 -8.8,-4.3 -13.9,-4.3 H 732.1 l 84.7,-211.5 c 2.6,-6.1 2.5,-12.2 -0.2,-18.4 -2.7,-6.2 -7.3,-10.6 -13.6,-13.2 L 680.5,649.5 c -1.3,-0.6 -2.7,-1 -4.3,-1.2 -1.7,-0.2 -3.2,-0.3 -4.8,-0.3 z m -98.1,293.8 h 2.4 c 0,0 0.6,-0.2 1.9,-0.5 4.1,-0.6 7.9,-2.3 11.2,-5 3.3,-2.7 5.8,-6 7.4,-9.8 l 89,-222.5 77,31.1 -89,222 c -1.6,3.8 -2.2,7.7 -1.7,11.7 0.5,4 1.8,7.7 4.1,11.2 2.2,3.2 5.2,5.7 8.9,7.7 3.7,1.9 7.4,2.9 11.2,2.9 H 877.5 L 426.3,1400.7 V 786.3 L 555,933.7 c 2.2,2.6 4.9,4.5 8.1,6 3.2,1.5 6.7,2.1 10.2,2.1 z"
       id="path4" /></g></g>
</svg>
